<svg height="512pt" viewBox="0 0 512 512" width="512pt" xmlns="http://www.w3.org/2000/svg"><path d="m437.019531 74.980469c-48.351562-48.351563-112.636719-74.980469-181.019531-74.980469-68.378906 0-132.664062 26.628906-181.019531 74.980469-48.351563 48.355469-74.980469 112.640625-74.980469 181.019531s26.628906 132.667969 74.980469 181.019531c48.351562 48.351563 112.640625 74.980469 181.019531 74.980469h.003906c14.734375 0 28.585938-5.738281 39.007813-16.15625 21.503906-21.511719 21.503906-56.507812 0-78.019531-9.816407-9.8125-9.816407-25.777344 0-35.59375 3.621093-3.621094 8.144531-6.007813 13.132812-6.9375l165.167969.003906c5.765625 0 11.019531-3.304687 13.519531-8.496094 16.699219-34.722656 25.167969-72 25.167969-110.800781 0-68.378906-26.628906-132.664062-74.980469-181.019531zm0 0" fill="#d55f05"/><path d="m437.019531 74.980469c-48.351562-48.351563-112.636719-74.980469-181.019531-74.980469v512h.003906c14.734375 0 28.585938-5.738281 39.007813-16.15625 21.503906-21.511719 21.503906-56.507812 0-78.019531-9.816407-9.8125-9.816407-25.777344 0-35.59375 3.621093-3.621094 8.144531-6.007813 13.132812-6.9375l165.167969.003906c5.765625 0 11.019531-3.304687 13.519531-8.496094 16.699219-34.722656 25.167969-72 25.167969-110.800781 0-68.378906-26.628906-132.664062-74.980469-181.019531zm0 0" fill="#a24603"/><path d="m209.804688 302.199219c-10.421876-10.421875-24.273438-16.160157-39.011719-16.160157-14.734375 0-28.589844 5.738282-39.007813 16.160157-21.507812 21.507812-21.507812 56.507812 0 78.019531 10.417969 10.417969 24.273438 16.152344 39.007813 16.152344s28.589843-5.734375 39.007812-16.15625c10.421875-10.417969 16.160157-24.273438 16.160157-39.007813s-5.738282-28.589843-16.15625-39.007812zm0 0" fill="#ffd400"/><path d="m135.5 200.832031c-30.417969 0-55.164062 24.75-55.164062 55.167969s24.746093 55.167969 55.164062 55.167969c30.421875 0 55.167969-24.75 55.167969-55.167969s-24.746094-55.167969-55.167969-55.167969zm0 0" fill="#ff9100"/><path d="m209.804688 131.785156c-10.421876-10.421875-24.273438-16.160156-39.011719-16.160156-14.734375 0-28.589844 5.738281-39.007813 16.160156-21.507812 21.511719-21.507812 56.511719 0 78.019532 10.421875 10.417968 24.273438 16.15625 39.007813 16.15625s28.589843-5.738282 39.011719-16.15625c21.507812-21.511719 21.507812-56.511719 0-78.019532zm0 0" fill="#ff4949"/><path d="m256 80.335938c-30.417969 0-55.164062 24.746093-55.164062 55.164062s24.746093 55.167969 55.164062 55.167969c30.421875 0 55.167969-24.75 55.167969-55.167969s-24.746094-55.164062-55.167969-55.164062zm0 0" fill="#008adf"/><path d="m256 80.335938v110.332031c30.421875 0 55.167969-24.75 55.167969-55.167969s-24.746094-55.164062-55.167969-55.164062zm0 0" fill="#0065a3"/><path d="m380.21875 131.785156c-10.421875-10.421875-24.277344-16.160156-39.011719-16.160156s-28.589843 5.738281-39.007812 16.160156c-10.421875 10.417969-16.160157 24.273438-16.160157 39.011719 0 14.734375 5.738282 28.589844 16.160157 39.011719 10.417969 10.417968 24.273437 16.152344 39.007812 16.152344s28.589844-5.734376 39.011719-16.15625c21.503906-21.511719 21.503906-56.511719 0-78.019532zm0 0" fill="#00ab5e"/><path d="m376.5 200.832031c-30.417969 0-55.164062 24.75-55.164062 55.167969s24.746093 55.167969 55.164062 55.167969 55.164062-24.75 55.164062-55.167969-24.746093-55.167969-55.164062-55.167969zm0 0" fill="#d5eded"/></svg>